<?xml version="1.0" encoding="utf-8"?>
<!-- Generator: Adobe Illustrator 16.0.0, SVG Export Plug-In . SVG Version: 6.00 Build 0)  -->
<!DOCTYPE svg PUBLIC "-//W3C//DTD SVG 1.1//EN" "http://www.w3.org/Graphics/SVG/1.1/DTD/svg11.dtd">
<svg version="1.1" id="Layer_1" xmlns="http://www.w3.org/2000/svg" class="wheelchair" xmlns:xlink="http://www.w3.org/1999/xlink" x="0px" y="0px"
	 width="10px" height="10px" viewBox="0 0 10 10" enable-background="new 0 0 10 10" xml:space="preserve">
<circle fill="#555555" cx="5" cy="5" r="5"/>
<g>
	<path fill="#FFFFFF" d="M6.368,5.896c0.004,0.055,0.008,0.109,0.008,0.166c0,0.984-0.799,1.783-1.784,1.783
		S2.808,7.047,2.808,6.062c0-0.615,0.311-1.157,0.783-1.478V3.96c-0.786,0.373-1.33,1.174-1.33,2.103c0,1.287,1.043,2.33,2.331,2.33
		c1.004,0,1.858-0.637,2.187-1.527L6.368,5.896z"/>
	<path fill="#FFFFFF" d="M8.455,6.793C8.391,6.672,8.239,6.627,8.118,6.691L7.635,6.955L6.786,4.954
		C6.784,4.949,6.782,4.946,6.78,4.943C6.745,4.851,6.655,4.784,6.55,4.784H4.354V4.312h1.438c0.136,0,0.248-0.111,0.248-0.248
		S5.929,3.815,5.793,3.815H4.354V2.311c0-0.138-0.113-0.248-0.248-0.248c-0.139,0-0.25,0.11-0.25,0.248v2.723l0,0
		c0,0.067,0.026,0.127,0.07,0.171C3.928,5.206,3.928,5.208,3.93,5.21c0.001,0,0.003,0,0.003,0.002
		c0.045,0.043,0.105,0.069,0.172,0.069h2.28l0.897,2.118c0.029,0.07,0.089,0.119,0.156,0.141c0.002,0,0.006,0.002,0.008,0.002
		c0.012,0.004,0.021,0.004,0.033,0.006c0.006,0.002,0.012,0.002,0.02,0.002c0.007,0.002,0.016,0.002,0.023,0
		c0.01,0,0.021,0,0.03-0.004c0.004,0,0.007,0,0.011,0c0.017-0.004,0.028-0.01,0.043-0.014c0-0.002,0-0.002,0-0.002h0.002
		c0.008-0.004,0.016-0.006,0.022-0.01l0.724-0.391C8.478,7.062,8.521,6.914,8.455,6.793"/>
	<path fill="#FFFFFF" d="M4.871,1.772c0,0.344-0.278,0.623-0.623,0.623S3.625,2.116,3.625,1.772s0.278-0.623,0.623-0.623
		S4.871,1.429,4.871,1.772"/>
</g>
</svg>